<svg xmlns="http://www.w3.org/2000/svg" width="512" height="512"><path d="M501.801 139.942H171.312c-5.633 0-10.199 4.566-10.199 10.199v19.235h-97.21c-5.633 0-10.199 4.566-10.199 10.199s4.566 10.199 10.199 10.199h97.21v132.452h-58.101c-5.633 0-10.199 4.566-10.199 10.199s4.566 10.199 10.199 10.199h58.101v19.235c0 5.633 4.566 10.199 10.199 10.199h330.489c5.633 0 10.199-4.566 10.199-10.199V150.141c0-5.633-4.566-10.199-10.199-10.199zm-25.16 20.398l-140.07 114.985L197.14 160.34h279.501zm14.961 191.321h-310.09v-177.77l148.556 122.51a10.183 10.183 0 0 0 6.489 2.331c2.295 0 4.591-.772 6.471-2.316L491.602 174.45v177.211z" fill="#FFF"/><path d="M119.673 244.768H10.199C4.566 244.768 0 249.334 0 254.967s4.566 10.199 10.199 10.199h109.474c5.633 0 10.199-4.566 10.199-10.199.001-5.633-4.566-10.199-10.199-10.199zm-50.318 77.459h-5.451c-5.633 0-10.199 4.566-10.199 10.199s4.566 10.199 10.199 10.199h5.451c5.633 0 10.199-4.566 10.199-10.199s-4.566-10.199-10.199-10.199z" fill="#FFF"/></svg>